<?xml version="1.0" encoding="UTF-8"?>
<svg xmlns="http://www.w3.org/2000/svg" viewBox="0 0 1024 1024">
  <defs>
    <linearGradient id="base" x1="176" y1="120" x2="880" y2="930" gradientUnits="userSpaceOnUse">
      <stop offset="0" stop-color="#18212b"/>
      <stop offset="0.56" stop-color="#10161e"/>
      <stop offset="1" stop-color="#0a0f15"/>
    </linearGradient>
    <linearGradient id="edge" x1="184" y1="128" x2="850" y2="868" gradientUnits="userSpaceOnUse">
      <stop offset="0" stop-color="#9ee8d9" stop-opacity="0.92"/>
      <stop offset="0.62" stop-color="#36d1b5" stop-opacity="0.62"/>
      <stop offset="1" stop-color="#f0b66a" stop-opacity="0.34"/>
    </linearGradient>
    <radialGradient id="glow" cx="50%" cy="40%" r="62%">
      <stop offset="0" stop-color="#36d1b5" stop-opacity="0.2"/>
      <stop offset="0.6" stop-color="#36d1b5" stop-opacity="0.06"/>
      <stop offset="1" stop-color="#36d1b5" stop-opacity="0"/>
    </radialGradient>
    <filter id="softShadow" x="-20%" y="-20%" width="140%" height="140%">
      <feDropShadow dx="0" dy="18" stdDeviation="18" flood-color="#000810" flood-opacity="0.45"/>
    </filter>
  </defs>
  <rect x="58" y="58" width="908" height="908" rx="202" fill="url(#base)"/>
  <rect x="58" y="58" width="908" height="908" rx="202" fill="url(#glow)"/>
  <rect x="80" y="80" width="864" height="864" rx="184" fill="none" stroke="url(#edge)" stroke-width="24"/>
  <path d="M185 286H839M185 512H839M185 738H839M286 185V839M512 185V839M738 185V839" stroke="#9bb0aa" stroke-width="6" opacity="0.08"/>
  <g filter="url(#softShadow)" stroke-linecap="round" stroke-linejoin="round">
    
    <path d="M260 332H764M260 512H764M260 692H764M332 260V764M512 260V764M692 260V764" stroke="#9bb0aa" stroke-width="14" opacity="0.3"/>
    <path d="M512 264C594 264 660 330 660 412C660 526 512 674 512 674C512 674 364 526 364 412C364 330 430 264 512 264Z" fill="#172432" stroke="#f4fbff" stroke-width="30"/>
    <circle cx="512" cy="412" r="54" fill="#f0b66a"/>
    <path d="M334 682C384 622 444 592 512 592C580 592 640 622 690 682M282 752C350 670 426 630 512 630C598 630 674 670 742 752" fill="none" stroke="#36d1b5" stroke-width="24" opacity="0.8"/>
    <circle cx="324" cy="544" r="28" fill="#36d1b5"/>
    <circle cx="724" cy="548" r="28" fill="#36d1b5"/>
    <path d="M348 544C424 572 598 572 700 548" fill="none" stroke="#9bb0aa" stroke-width="18"/>
  
  </g>
</svg>
